# xmcd
#
# Track frame offsets: 
#        150
#        34428
#        50525
#        52286
#        59747
#        66408
#        78662
#        100112
#        103771
#        147644
#
# Disc length: 2063 seconds
#
# Revision: 0
# Processed by: cddbd v1.5.2PL0 Copyright (c) Steve Scherf et al.
# Submitted via: ExactAudioCopy v0.95b3
#
DISCID=a4080d0a
DTITLE=Rush  - Poughkeepsie, NY  - 1980-01-26  FLAC
DYEAR=1900
DGENRE=
TTITLE0=Jacob's Ladder
TTITLE1=Working Man
TTITLE2=Finding my Way
TTITLE3=Anthem
TTITLE4=Bastille Day
TTITLE5=In the Mood
TTITLE6=Drum Solo (Doctor Braino)
TTITLE7=Working Man ending
TTITLE8=La Villa Strangiato
TTITLE9=Cool Down Music - "We'll Meet Again"
EXTD=
EXTT0=
EXTT1=
EXTT2=
EXTT3=
EXTT4=
EXTT5=
EXTT6=
EXTT7=
EXTT8=
EXTT9=
PLAYORDER=
